<svg width="113" height="38" viewBox="0 0 113 38" fill="none" xmlns="http://www.w3.org/2000/svg">
<path d="M9.42578 6.89062C9.01953 6.45052 8.81641 5.92578 8.81641 5.31641C8.81641 4.70703 9.01953 4.19922 9.42578 3.79297C9.86589 3.38672 10.3906 3.18359 11 3.18359C11.6094 3.18359 12.1172 3.38672 12.5234 3.79297C12.9635 4.19922 13.1836 4.70703 13.1836 5.31641C13.1836 5.92578 12.9635 6.45052 12.5234 6.89062C12.1172 7.29688 11.6094 7.5 11 7.5C10.3906 7.5 9.86589 7.29688 9.42578 6.89062ZM19.4297 20.8047L17.8555 22.3281C17.2461 21.7188 16.3828 20.8555 15.2656 19.7383C14.1484 18.5872 13.4544 17.8763 13.1836 17.6055L14.707 16.082L15.0625 16.4883L19.4297 20.8047ZM8.86719 17.6562C8.25781 18.2656 7.3776 19.1289 6.22656 20.2461C5.10938 21.3633 4.41536 22.0573 4.14453 22.3281L2.57031 20.8047C3.17969 20.1953 4.04297 19.332 5.16016 18.2148C6.3112 17.0977 7.02214 16.4036 7.29297 16.1328L8.86719 17.6562ZM13.082 10.3438L17.8555 5.57031L19.4297 7.09375L14.6562 11.8672L13.082 10.3438ZM8.86719 10.293L7.34375 11.8164L6.98828 11.5117L2.67188 7.09375L4.19531 5.57031L4.5 5.92578H4.55078L8.86719 10.293ZM9.42578 24.207C9.01953 23.8008 8.81641 23.293 8.81641 22.6836C8.81641 22.0742 9.01953 21.5664 9.42578 21.1602C9.86589 20.7201 10.3906 20.5 11 20.5C11.6094 20.5 12.1172 20.7201 12.5234 21.1602C12.9635 21.5664 13.1836 22.0742 13.1836 22.6836C13.1836 23.293 12.9635 23.8008 12.5234 24.207C12.1172 24.6133 11.6094 24.8164 11 24.8164C10.3906 24.8164 9.86589 24.6133 9.42578 24.207ZM0.792969 15.5742C0.386719 15.1341 0.183594 14.6094 0.183594 14C0.183594 13.3906 0.386719 12.8828 0.792969 12.4766C1.19922 12.0365 1.70703 11.8164 2.31641 11.8164C2.92578 11.8164 3.43359 12.0365 3.83984 12.4766C4.27995 12.8828 4.5 13.3906 4.5 14C4.5 14.6094 4.27995 15.1341 3.83984 15.5742C3.43359 15.9805 2.92578 16.1836 2.31641 16.1836C1.70703 16.1836 1.19922 15.9805 0.792969 15.5742ZM18.1094 15.5742C17.7031 15.1341 17.5 14.6094 17.5 14C17.5 13.3906 17.7031 12.8828 18.1094 12.4766C18.5495 12.0365 19.0742 11.8164 19.6836 11.8164C20.293 11.8164 20.8008 12.0365 21.207 12.4766C21.6133 12.8828 21.8164 13.3906 21.8164 14C21.8164 14.6094 21.6133 15.1341 21.207 15.5742C20.8008 15.9805 20.293 16.1836 19.6836 16.1836C19.0742 16.1836 18.5495 15.9805 18.1094 15.5742Z" fill="#A7CDDB"/>
<path d="M34.5469 26.6484C35.4844 26.6016 36.3984 26.2734 37.2891 25.6641C36.9609 25.1484 36.6211 24.6914 36.2695 24.293C35.9414 23.8945 35.5781 23.5664 35.1797 23.3086C34.8047 23.0508 34.3828 22.8633 33.9141 22.7461C33.4453 22.6055 33.0117 22.5586 32.6133 22.6055C32.1914 22.6523 31.8516 22.8047 31.5938 23.0625C31.3359 23.3203 31.2422 23.6953 31.3125 24.1875C31.3359 24.4453 31.4297 24.7266 31.5938 25.0312C31.7812 25.3125 32.0156 25.582 32.2969 25.8398C32.5781 26.0742 32.9062 26.2734 33.2812 26.4375C33.6562 26.6016 34.0781 26.6719 34.5469 26.6484ZM34.125 28.4062C32.8359 28.3828 31.5703 28.0078 30.3281 27.2812C29.1094 26.5547 28.0312 25.5586 27.0938 24.293C26.1562 23.0039 25.4297 21.4688 24.9141 19.6875C24.4219 17.9062 24.2461 15.9375 24.3867 13.7812C24.5273 11.8828 24.8906 10.1016 25.4766 8.4375C26.0625 6.77344 26.8477 5.33203 27.832 4.11328C28.8398 2.87109 30.0352 1.91016 31.418 1.23047C32.8242 0.527344 34.418 0.199219 36.1992 0.246094C37.6055 0.292969 38.8945 0.644531 40.0664 1.30078C41.2383 1.93359 42.2461 2.82422 43.0898 3.97266C43.957 5.12109 44.625 6.50391 45.0938 8.12109C45.5625 9.71484 45.7969 11.4961 45.7969 13.4648C45.7734 14.8008 45.6211 16.125 45.3398 17.4375C45.082 18.7266 44.707 19.9453 44.2148 21.0938C43.7227 22.2188 43.1133 23.2617 42.3867 24.2227C41.6836 25.1602 40.875 25.957 39.9609 26.6133C40.2656 27.5977 40.582 28.6289 40.9102 29.707C41.2617 30.8086 41.6602 31.8164 42.1055 32.7305C42.5508 33.668 43.0781 34.4648 43.6875 35.1211C44.2969 35.7773 45.0234 36.1641 45.8672 36.2812C46.7109 36.3984 47.4023 36.3164 47.9414 36.0352C48.5039 35.7539 48.9492 35.3789 49.2773 34.9102C49.6055 34.4648 49.8281 33.9727 49.9453 33.4336C50.0859 32.8945 50.1445 32.4258 50.1211 32.0273C50.1211 31.6289 50.0273 31.2539 49.8398 30.9023C49.6523 30.5742 49.4062 30.293 49.1016 30.0586C48.8203 29.8242 48.4922 29.6484 48.1172 29.5312C47.7656 29.4375 47.4023 29.4375 47.0273 29.5312C46.6523 29.625 46.3008 29.7656 45.9727 29.9531C45.668 30.1641 45.4219 30.3984 45.2344 30.6562C45.0469 30.9141 44.918 31.1953 44.8477 31.5C44.8008 31.8281 44.8477 32.1445 44.9883 32.4492C45.1289 32.7539 45.3164 32.9883 45.5508 33.1523C45.7852 33.3164 46.0312 33.4219 46.2891 33.4688C46.5469 33.5156 46.793 33.5156 47.0273 33.4688C47.2617 33.4219 47.4492 33.3516 47.5898 33.2578C47.8008 33.0703 47.9531 32.7773 48.0469 32.3789C48.1406 31.9805 47.9883 31.6406 47.5898 31.3594C47.6133 31.5469 47.5781 31.7344 47.4844 31.9219C47.3906 32.1094 47.2148 32.25 46.957 32.3438C46.6992 32.4141 46.4648 32.3789 46.2539 32.2383C46.043 32.1211 45.9023 31.957 45.832 31.7461C45.7852 31.5352 45.8203 31.3125 45.9375 31.0781C46.0781 30.8438 46.3477 30.6562 46.7461 30.5156C46.9102 30.4688 47.1094 30.457 47.3438 30.4805C47.6016 30.5039 47.8477 30.5742 48.082 30.6914C48.3164 30.832 48.5156 31.0078 48.6797 31.2188C48.8438 31.4531 48.9258 31.7461 48.9258 32.0977C48.9258 32.4492 48.8555 32.7773 48.7148 33.082C48.5977 33.3867 48.4219 33.6445 48.1875 33.8555C47.9766 34.0664 47.7305 34.2305 47.4492 34.3477C47.168 34.4648 46.875 34.5234 46.5703 34.5234C46.2656 34.5234 45.9609 34.4766 45.6562 34.3828C45.3516 34.3125 45.0586 34.1836 44.7773 33.9961C44.5195 33.832 44.3086 33.5977 44.1445 33.293C43.9805 32.9883 43.8867 32.5898 43.8633 32.0977C43.8398 31.6055 43.9219 31.1484 44.1094 30.7266C44.2969 30.3281 44.543 29.9648 44.8477 29.6367C45.1523 29.332 45.5039 29.0859 45.9023 28.8984C46.3008 28.7344 46.7109 28.6406 47.1328 28.6172C47.7422 28.5703 48.293 28.6406 48.7852 28.8281C49.2773 29.0156 49.6992 29.2852 50.0508 29.6367C50.4023 29.9883 50.6719 30.4102 50.8594 30.9023C51.0469 31.3945 51.1523 31.9219 51.1758 32.4844C51.1992 33.0938 51.0938 33.7031 50.8594 34.3125C50.6484 34.9453 50.332 35.5078 49.9102 36C49.4883 36.4922 48.9727 36.8789 48.3633 37.1602C47.7539 37.4648 47.0625 37.5938 46.2891 37.5469C45.1641 37.5 44.1211 37.1953 43.1602 36.6328C42.2227 36.0938 41.3672 35.168 40.5938 33.8555C40.3125 33.3398 40.0664 32.7656 39.8555 32.1328C39.6445 31.5234 39.4219 30.8672 39.1875 30.1641C39.0469 29.6953 38.8945 29.2383 38.7305 28.793C38.5898 28.3711 38.4375 27.9609 38.2734 27.5625C37.0078 28.1484 35.625 28.4297 34.125 28.4062ZM35.6719 1.47656C34.6875 1.52344 33.6797 1.91016 32.6484 2.63672C31.6172 3.33984 30.6797 4.30078 29.8359 5.51953C29.0156 6.73828 28.3477 8.16797 27.832 9.80859C27.3164 11.4492 27.082 13.1953 27.1289 15.0469C27.1758 16.8281 27.4453 18.3516 27.9375 19.6172C28.4531 20.8828 28.9688 21.8789 29.4844 22.6055C29.5547 22.207 29.7305 21.8555 30.0117 21.5508C30.3164 21.2227 30.7617 20.9531 31.3477 20.7422C31.8867 20.5312 32.4961 20.4492 33.1758 20.4961C33.8789 20.5195 34.582 20.6719 35.2852 20.9531C35.9883 21.2344 36.6562 21.6445 37.2891 22.1836C37.9453 22.6992 38.5078 23.3555 38.9766 24.1523C39.9609 23.0273 40.793 21.4805 41.4727 19.5117C42.1523 17.543 42.4805 15.1523 42.457 12.3398C42.457 11.0039 42.2812 9.67969 41.9297 8.36719C41.6016 7.05469 41.1328 5.88281 40.5234 4.85156C39.9375 3.82031 39.2227 3 38.3789 2.39062C37.5586 1.75781 36.6562 1.45313 35.6719 1.47656ZM48.9609 15.3984C49.2422 13.3359 49.4297 11.4844 49.5234 9.84375C49.6406 8.20312 49.6172 6.82031 49.4531 5.69531C49.2891 4.54688 48.9727 3.65625 48.5039 3.02344C48.0352 2.39062 47.3672 2.05078 46.5 2.00391L46.6406 1.26562C47.2031 1.33594 47.8008 1.42969 48.4336 1.54688C49.0664 1.64062 49.7344 1.72266 50.4375 1.79297C51.1641 1.83984 51.9141 1.86328 52.6875 1.86328C53.4609 1.83984 54.2578 1.75781 55.0781 1.61719L55.0078 2.42578C54.7969 2.49609 54.5508 2.71875 54.2695 3.09375C54.0117 3.44531 53.7539 3.99609 53.4961 4.74609C53.2383 5.47266 52.9922 6.41016 52.7578 7.55859C52.5469 8.70703 52.3711 10.1016 52.2305 11.7422C52.1602 12.8203 52.0898 13.9688 52.0195 15.1875C51.9727 16.4062 51.9727 17.6016 52.0195 18.7734C52.0898 19.9219 52.2422 21.0234 52.4766 22.0781C52.7109 23.1094 53.0625 24.0117 53.5312 24.7852C54 25.5586 54.6211 26.1445 55.3945 26.543C56.168 26.9414 57.1406 27.082 58.3125 26.9648C59.2734 26.8711 60.0469 26.4492 60.6328 25.6992C61.2188 24.9492 61.6641 23.9766 61.9688 22.7812C62.2734 21.5625 62.4609 20.1797 62.5312 18.6328C62.625 17.0625 62.6484 15.4219 62.6016 13.7109C62.5547 11.8359 62.5078 10.2539 62.4609 8.96484C62.4141 7.65234 62.2266 6.55078 61.8984 5.66016C61.6172 4.93359 61.2422 4.42969 60.7734 4.14844C60.3281 3.84375 59.7891 3.59766 59.1562 3.41016L59.2617 2.56641C60.5977 2.70703 61.9922 2.77734 63.4453 2.77734C64.9219 2.77734 66.293 2.64844 67.5586 2.39062L67.6641 2.98828C67.3359 3.17578 67.0195 3.41016 66.7148 3.69141C66.4336 3.94922 66.1758 4.28906 65.9414 4.71094C65.7305 5.13281 65.5547 5.63672 65.4141 6.22266C65.2734 6.80859 65.1914 7.5 65.168 8.29688C65.168 9.09375 65.168 10.0195 65.168 11.0742C65.1914 12.1055 65.2266 13.2305 65.2734 14.4492C65.3438 15.6445 65.4258 16.9102 65.5195 18.2461C65.6133 19.582 65.7305 20.9414 65.8711 22.3242C66.0352 23.707 66.2812 24.832 66.6094 25.6992C66.9609 26.5664 67.3359 27.1523 67.7344 27.457C68.1562 27.7852 68.5781 27.8086 69 27.5273C69.4219 27.2695 69.8086 26.6836 70.1602 25.7695L70.6875 26.1211C70.5938 26.5898 70.3828 27.0469 70.0547 27.4922C69.75 27.9375 69.3633 28.2891 68.8945 28.5469C68.4492 28.8281 67.957 28.9922 67.418 29.0391C66.9023 29.0859 66.3867 28.9336 65.8711 28.582C65.3555 28.2539 64.875 27.6914 64.4297 26.8945C63.9844 26.0977 63.6211 25.0078 63.3398 23.625C63.1289 24.2344 62.8711 24.8672 62.5664 25.5234C62.2617 26.1562 61.8516 26.7188 61.3359 27.2109C60.8203 27.7266 60.1641 28.125 59.3672 28.4062C58.5703 28.7109 57.5742 28.8281 56.3789 28.7578C53.4961 28.5938 51.3984 27.375 50.0859 25.1016C48.7734 22.8281 48.3984 19.5938 48.9609 15.3984ZM79.793 29.2148C78.8086 29.2148 77.7422 28.9219 76.5938 28.3359C75.4453 27.75 74.3789 26.8594 73.3945 25.6641C72.4336 24.4453 71.6367 22.8984 71.0039 21.0234C70.3711 19.1484 70.0781 16.9219 70.125 14.3438C70.1719 11.9766 70.5586 9.96094 71.2852 8.29688C72.0352 6.60938 72.9492 5.23828 74.0273 4.18359C75.1055 3.12891 76.2422 2.35547 77.4375 1.86328C78.6562 1.37109 79.7578 1.125 80.7422 1.125C81.9844 1.125 83.168 1.39453 84.293 1.93359C85.4414 2.47266 86.4609 3.26953 87.3516 4.32422C88.2422 5.35547 88.957 6.64453 89.4961 8.19141C90.0586 9.71484 90.375 11.4727 90.4453 13.4648C90.5156 15.668 90.2461 17.7422 89.6367 19.6875C89.0273 21.6094 88.207 23.2852 87.1758 24.7148C86.168 26.1211 85.0078 27.2227 83.6953 28.0195C82.3828 28.8398 81.082 29.2383 79.793 29.2148ZM73.0781 14.7656C73.0547 15.4688 73.0664 16.2539 73.1133 17.1211C73.1602 17.9648 73.2656 18.832 73.4297 19.7227C73.5938 20.6133 73.8164 21.4922 74.0977 22.3594C74.4023 23.2031 74.7773 23.9648 75.2227 24.6445C75.668 25.3242 76.1953 25.8867 76.8047 26.332C77.4141 26.7773 78.1289 27.0234 78.9492 27.0703C79.7461 27.1172 80.5195 26.9297 81.2695 26.5078C82.0195 26.0859 82.7109 25.5 83.3438 24.75C84 24 84.5859 23.1211 85.1016 22.1133C85.6172 21.1055 86.0508 20.0625 86.4023 18.9844C86.7539 17.8828 87.0117 16.793 87.1758 15.7148C87.3398 14.6133 87.3984 13.582 87.3516 12.6211C87.2812 11.7305 87.1992 10.9688 87.1055 10.3359C87.0117 9.67969 86.8828 9.11719 86.7188 8.64844C86.7188 9.07031 86.6719 9.50391 86.5781 9.94922C86.5078 10.3711 86.3672 10.793 86.1562 11.2148C85.9453 11.6367 85.6523 12.0352 85.2773 12.4102C84.9258 12.7852 84.4688 13.1016 83.9062 13.3594C83.0625 13.7578 82.2656 13.9805 81.5156 14.0273C80.7656 14.0508 80.0977 13.9336 79.5117 13.6758C78.9258 13.418 78.4336 13.0195 78.0352 12.4805C77.6602 11.918 77.4258 11.2383 77.332 10.4414C77.2148 9.64453 77.2734 8.94141 77.5078 8.33203C77.7656 7.69922 78.1055 7.17188 78.5273 6.75C78.9492 6.30469 79.4297 5.96484 79.9688 5.73047C80.5078 5.49609 81.0352 5.35547 81.5508 5.30859C81.7148 5.30859 81.9375 5.33203 82.2188 5.37891C82.5 5.40234 82.7812 5.49609 83.0625 5.66016C83.3438 5.80078 83.5898 6.03516 83.8008 6.36328C84.0117 6.69141 84.1289 7.13672 84.1523 7.69922C84.1758 8.28516 84.0469 8.78906 83.7656 9.21094C83.5078 9.60938 83.1797 9.92578 82.7812 10.1602C82.4062 10.3945 82.0078 10.5352 81.5859 10.582C81.1875 10.6055 80.8477 10.5469 80.5664 10.4062C80.3086 10.2422 80.1562 10.043 80.1094 9.80859C80.0625 9.55078 80.0859 9.31641 80.1797 9.10547C80.2734 8.87109 80.4141 8.68359 80.6016 8.54297C80.8125 8.40234 81.0352 8.35547 81.2695 8.40234C81.6211 8.49609 81.832 8.69531 81.9023 9C81.9961 9.28125 82.0078 9.55078 81.9375 9.80859C82.4062 9.69141 82.7461 9.44531 82.957 9.07031C83.1914 8.69531 83.2969 8.30859 83.2734 7.91016C83.2734 7.51172 83.1445 7.16016 82.8867 6.85547C82.6523 6.52734 82.2891 6.36328 81.7969 6.36328C80.9062 6.36328 80.1328 6.65625 79.4766 7.24219C78.8203 7.80469 78.4805 8.625 78.457 9.70312C78.457 10.0547 78.4922 10.4297 78.5625 10.8281C78.6328 11.2266 78.7734 11.5898 78.9844 11.918C79.2188 12.2461 79.5352 12.5156 79.9336 12.7266C80.332 12.9141 80.8711 12.9844 81.5508 12.9375C82.207 12.8906 82.7812 12.7266 83.2734 12.4453C83.7891 12.1406 84.2109 11.7773 84.5391 11.3555C84.8906 10.9102 85.1602 10.418 85.3477 9.87891C85.5352 9.33984 85.6289 8.78906 85.6289 8.22656C85.6523 7.21875 85.5352 6.38672 85.2773 5.73047C85.0195 5.05078 84.6797 4.51172 84.2578 4.11328C83.8594 3.69141 83.4023 3.39844 82.8867 3.23438C82.3945 3.07031 81.9141 2.97656 81.4453 2.95312C80.4141 2.92969 79.418 3.28125 78.457 4.00781C77.4961 4.71094 76.6289 5.625 75.8555 6.75C75.082 7.875 74.4375 9.15234 73.9219 10.582C73.4297 11.9883 73.1484 13.3828 73.0781 14.7656ZM92.2734 12.1641C91.7344 12.1875 91.2188 12.1055 90.7266 11.918C90.2344 11.707 89.8125 11.4141 89.4609 11.0391C89.0859 10.6641 88.8047 10.207 88.6172 9.66797C88.4062 9.10547 88.3008 8.48438 88.3008 7.80469C88.3008 6.9375 88.5703 6.10547 89.1094 5.30859C89.6484 4.48828 90.3984 3.77344 91.3594 3.16406C92.3203 2.53125 93.4805 2.03906 94.8398 1.6875C96.2227 1.3125 97.7461 1.125 99.4102 1.125C100.863 1.125 102.34 1.30078 103.84 1.65234C105.34 2.00391 106.711 2.66016 107.953 3.62109C109.195 4.55859 110.215 5.87109 111.012 7.55859C111.809 9.24609 112.23 11.4258 112.277 14.0977C112.301 16.793 111.891 19.1836 111.047 21.2695C110.203 23.3555 108.973 25.0664 107.355 26.4023C105.738 27.7383 103.781 28.6523 101.484 29.1445C99.1875 29.6602 96.6094 29.6719 93.75 29.1797V28.2656C94.1484 28.3359 94.5234 28.3711 94.875 28.3711C95.25 28.3711 95.5781 28.2656 95.8594 28.0547C96.1406 27.8438 96.3633 27.4922 96.5273 27C96.7148 26.5312 96.8203 25.8633 96.8438 24.9961C96.8672 24.4805 96.8906 23.6953 96.9141 22.6406C96.9609 21.5625 96.9961 20.3555 97.0195 19.0195C97.0664 17.6602 97.1016 16.2188 97.125 14.6953C97.1484 13.1719 97.1367 11.6953 97.0898 10.2656C97.0664 8.8125 97.0195 7.46484 96.9492 6.22266C96.8789 4.98047 96.7617 3.96094 96.5977 3.16406C95.9414 3.14063 95.1914 3.22266 94.3477 3.41016C93.5273 3.57422 92.7422 3.86719 91.9922 4.28906C91.2656 4.71094 90.6562 5.25 90.1641 5.90625C89.6484 6.5625 89.3906 7.33594 89.3906 8.22656C89.3906 8.69531 89.4844 9.11719 89.6719 9.49219C89.8359 9.84375 90.0703 10.1484 90.375 10.4062C90.6797 10.6406 91.0195 10.8281 91.3945 10.9688C91.7461 11.0859 92.1094 11.1328 92.4844 11.1094C93.1641 11.0625 93.7031 10.8047 94.1016 10.3359C94.5234 9.86719 94.7109 9.32812 94.6641 8.71875C94.6406 8.41406 94.5586 8.10938 94.418 7.80469C94.2773 7.5 94.1016 7.24219 93.8906 7.03125C93.6797 6.79688 93.4336 6.63281 93.1523 6.53906C92.8945 6.42187 92.6133 6.39844 92.3086 6.46875C91.8398 6.58594 91.5703 6.82031 91.5 7.17188C91.4062 7.5 91.3828 7.79297 91.4297 8.05078C91.4766 8.33203 91.6172 8.55469 91.8516 8.71875C92.0859 8.88281 92.3555 8.90625 92.6602 8.78906C92.3555 8.67188 92.1914 8.46094 92.168 8.15625C92.1445 7.82812 92.25 7.61719 92.4844 7.52344C92.8125 7.40625 93.082 7.44141 93.293 7.62891C93.5039 7.81641 93.6094 8.05078 93.6094 8.33203C93.6328 8.61328 93.5273 8.88281 93.293 9.14062C93.0586 9.39844 92.6602 9.55078 92.0977 9.59766C91.6992 9.64453 91.3711 9.49219 91.1133 9.14062C90.832 8.78906 90.6797 8.36719 90.6562 7.875C90.6328 7.40625 90.7852 6.94922 91.1133 6.50391C91.418 6.05859 91.8867 5.80078 92.5195 5.73047C92.8477 5.70703 93.1758 5.76562 93.5039 5.90625C93.8555 6.02344 94.1719 6.22266 94.4531 6.50391C94.7344 6.76172 94.9688 7.07813 95.1562 7.45312C95.3438 7.82812 95.4609 8.22656 95.5078 8.64844C95.5547 9.07031 95.5195 9.49219 95.4023 9.91406C95.2852 10.3125 95.0859 10.6758 94.8047 11.0039C94.5234 11.332 94.1719 11.6016 93.75 11.8125C93.3281 12.0234 92.8359 12.1406 92.2734 12.1641ZM100.078 2.77734C99.9609 3.76172 99.8555 5.02734 99.7617 6.57422C99.6914 8.12109 99.6445 9.75 99.6211 11.4609C99.5977 13.1484 99.5859 14.8242 99.5859 16.4883C99.6094 18.1523 99.6445 19.582 99.6914 20.7773C99.7148 21.7383 99.75 22.582 99.7969 23.3086C99.8438 24.0117 99.9023 24.6211 99.9727 25.1367C100.043 25.6523 100.125 26.0859 100.219 26.4375C100.312 26.7656 100.441 27.0352 100.605 27.2461C102.035 26.9414 103.336 26.3555 104.508 25.4883C105.68 24.5977 106.664 23.4844 107.461 22.1484C108.258 20.7891 108.832 19.2188 109.184 17.4375C109.559 15.6562 109.664 13.7227 109.5 11.6367C109.336 9.66797 108.914 8.09766 108.234 6.92578C107.555 5.75391 106.746 4.85156 105.809 4.21875C104.895 3.58594 103.922 3.1875 102.891 3.02344C101.859 2.83594 100.922 2.75391 100.078 2.77734Z" fill="black"/>
</svg>
